<svg width="1024" height="1024" viewBox="0 0 1024 1024" fill="none" xmlns="http://www.w3.org/2000/svg">
<rect width="1024" height="1024" fill="#0D0D0D"/>
<path d="M504.557 824.811C515.668 842.799 502.729 866 481.586 866H303.97C277.362 866 266.797 831.576 288.824 816.649L414.027 731.801C426.742 723.184 444.073 726.895 452.145 739.962L504.557 824.811Z" fill="#F6F4EE" stroke="#0D0D0D" stroke-width="16"/>
<path d="M624.019 827.431C631.594 845.239 618.526 865 599.173 865H544.096C534.748 865 526.065 860.165 521.143 852.217L450.663 738.43C443.031 726.108 446.489 709.958 458.498 701.842L518.422 661.343C532.491 651.835 551.74 657.519 558.387 673.144L624.019 827.431Z" fill="#F6F4EE" stroke="#0D0D0D" stroke-width="16"/>
<path d="M657.436 865C646.613 865 636.836 858.537 632.595 848.58L553.729 663.405C548.661 651.505 552.743 637.683 563.464 630.447L616.008 594.978C630.854 584.957 651.165 591.905 656.762 608.92L729.343 829.563C735.088 847.027 722.079 865 703.695 865H657.436Z" fill="#F6F4EE" stroke="#0D0D0D" stroke-width="16"/>
<path d="M225.037 860.392C220.579 863.395 215.326 865 209.951 865H111.781C90.993 865 78.0031 842.493 88.4024 824.493L267.203 515.009C277.406 497.35 302.753 496.943 313.516 514.267L425.268 694.132C432.933 706.468 429.465 722.658 417.421 730.773L225.037 860.392Z" fill="#F6F4EE" stroke="#0D0D0D" stroke-width="16"/>
<path d="M527.51 654.767L459.932 700.329C447.238 708.887 429.975 705.19 421.9 692.184L295.53 488.656C290.278 480.198 290.107 469.536 295.085 460.914L367.897 334.801C379.026 315.526 407.386 317.238 416.116 337.711L466.517 455.906L537.253 621.789C542.33 633.696 538.243 647.531 527.51 654.767Z" fill="#F6F4EE"/>
<path d="M466.517 455.906L416.116 337.711C407.386 317.238 379.026 315.526 367.897 334.801L295.085 460.914C290.107 469.536 290.278 480.198 295.53 488.656L421.9 692.184C429.975 705.19 447.238 708.887 459.932 700.329L527.51 654.767C538.243 647.531 542.33 633.696 537.253 621.789L466.517 455.906Z" stroke="#0D0D0D" stroke-width="16"/>
<path d="M584.591 387.64C589.236 401.803 581.526 417.051 567.366 421.704L489.642 447.25C476.311 451.631 461.845 445.07 456.36 432.153L400.251 300.02C396.944 292.232 397.479 283.344 401.696 276.009L464.655 166.505C476.301 146.248 506.435 149.346 513.717 171.548L584.591 387.64Z" fill="#F6F4EE" stroke="#0D0D0D" stroke-width="16"/>
<path d="M639.632 554.512C643.4 565.979 639.1 578.554 629.099 585.312L572.35 623.66C558.282 633.167 539.035 627.483 532.388 611.859L477.512 482.873C471.319 468.316 478.91 451.578 493.941 446.648L567.818 422.412C581.982 417.766 597.232 425.477 601.885 439.638L639.632 554.512Z" fill="#F6F4EE" stroke="#0D0D0D" stroke-width="16"/>
<path d="M650.404 595.386C646.617 583.899 650.931 571.294 660.963 564.538L725.374 521.156C738.347 512.419 756.007 516.498 763.833 530.04L934.587 825.49C944.99 843.49 932 866 911.211 866H759.151C747.496 866 737.157 858.522 733.508 847.454L650.404 595.386Z" fill="#F6F4EE" stroke="#0D0D0D" stroke-width="16"/>
<path d="M666.321 354.729C674.914 369.585 667.647 388.582 651.334 393.912L618.501 404.639C604.356 409.261 589.138 401.566 584.475 387.434L496.103 119.586C494.765 115.531 495.223 111.098 497.36 107.402C503.124 97.4369 517.51 97.4369 523.274 107.402L666.321 354.729Z" fill="#F6F4EE" stroke="#0D0D0D" stroke-width="16"/>
<path d="M738.398 481.151C745.495 493.436 741.872 509.118 730.107 517.046L675.163 554.072C660.321 564.074 640.032 557.13 634.431 540.131L601.468 440.095C596.794 425.911 604.523 410.627 618.717 405.984L662.04 391.811C674.174 387.841 687.43 392.913 693.815 403.967L738.398 481.151Z" fill="#F6F4EE" stroke="#0D0D0D" stroke-width="16"/>
</svg>
